<?xml version="1.0" encoding="utf-8"?>
<!-- Generator: Adobe Illustrator 20.0.0, SVG Export Plug-In . SVG Version: 6.00 Build 0)  -->
<svg version="1.1" id="text" xmlns="http://www.w3.org/2000/svg" xmlns:xlink="http://www.w3.org/1999/xlink" x="0px" y="0px"
	 viewBox="0 0 1280 1024" style="enable-background:new 0 0 1280 1024;" xml:space="preserve">
<path d="M251.9,479.9c0-17.1,20-23.9,21-24.3c-0.3-0.1-6-2.8-7.1-9.6c-10.1-0.9-15.1-4.1-15.1-8.9c0-6.6,9.1-13.5,12.1-13.5
	c0.6,0,0.9,0.5,0.9,0.9c0,0.7-1.8,2.4-1.8,4.8c0,3.2,2,6,5.3,8.1c4.3-8.4,16.5-14.7,26.9-14.7c7.1,0,12.9,3.6,12.9,8.9
	c0,6.8-11.2,13.2-28.7,14.4c0.2,4.5,2.4,7.5,2.4,7.5s2.8-0.6,6.9-0.6s5.9,1.3,5.9,3.5c0,2-2.5,4.6-6.4,4.6c-4.8,0-8.1-1.9-8.1-1.9
	s-13.2,7-13.2,20.5c0,8.4,4.7,12.4,13.1,12.4c7.1,0,13.9-4.3,18.4-11.2c0,0,0.8-1.4,2-1.4s2.1,0.9,2.1,2c0,0.9-0.8,2.3-0.8,2.3
	c-4.3,7.1-12.9,14.3-25.1,14.3C264.4,498,251.9,492.8,251.9,479.9z M278.9,440.3c11.4,0,20-4,20-9.8c0-2.1-2.3-3.5-5.1-3.5
	C287.8,427,281,432.5,278.9,440.3z"/>
<path d="M344.1,465.8c0-1.3-0.8-1.9-1.8-1.9c-2.2,0-6.7,4.3-10,12.5c-2.9,7-4.2,13-4.2,17.7c0,1.7-0.8,2-2.2,2
	c-5.3,0-9.4-2.3-9.4-5.5c0-8.4,5.9-19.7,5.9-24.6c0-1.4-0.5-2.1-1.8-2.1c-4.9,0-13.4,10.9-13.4,30.2c0,1.7-0.8,2-2.2,2
	c-5.3,0-9.4-2.3-9.4-5.5c0-11.7,5.8-26,8.1-31.7c0.5-1.2,1.5-1.9,2.7-1.9c1.5,0,3.9,0.6,7,5.4c0,0,7.2-6.4,13.9-6.4
	c4.4,0,6.8,3.2,8.2,7.4c0,0,7.7-7.4,15-7.4c3.6,0,7.5,3.8,7.5,7.3c0,5.4-6.2,14.2-6.2,22.3c0,2.3,1.2,3.8,3.2,3.8
	c5.4,0,10.7-8.6,10.7-8.6s0.8-1.4,2-1.4c1.1,0,2.1,0.9,2.1,2c0,0.9-0.9,2.4-0.9,2.4s-7.3,12.3-17.2,12.3c-7.6,0-12.7-4.5-12.7-11
	C339,476.1,344.1,470.4,344.1,465.8z"/>
<path d="M396,492.4c-1.2,0-2.5-0.1-3.9-0.3c-3.2,2.5-7.1,4-11.4,4c-8.3,0-15.6-6.3-15.6-14.1c0-16.8,12.8-26,23.2-26
	c8.3,0,14.7,5.6,14.7,14.8c0,5.3-2.3,11.6-6.2,16.6c0.5,0.1,1,0.2,1.6,0.2c6.8,0,11.8-6.8,11.8-6.8s0.8-1.4,2-1.4
	c1.1,0,2.1,0.9,2.1,2c0,0.9-0.9,2.4-0.9,2.4S407.7,492.4,396,492.4z M381.7,491.3c1.1,0,2.1-0.4,3.1-1.2c-1.1-0.7-1.7-1.5-1.7-2.4
	c0-2.2,3.4-4.9,5-4.9c0.4,0,0.8,0.1,1.1,0.2c2-5,3.1-11.2,3.1-15.6c0-4.5-1.6-6.3-3.9-6.3c-4.5,0-11.5,9.9-11.5,23.4
	C376.9,488.5,378.7,491.3,381.7,491.3z"/>
<path d="M418.9,456c2.9,0,7.8,4.2,7.8,5.7c0,3.1-3.8,15.4-8.2,28.5c-0.2,0.4-0.3,0.9-0.4,1.3c6.4-3.2,10.7-6.7,13.6-10.7
	c0,0,1-1.4,2.2-1.4c1.2,0,2.1,0.9,2.1,2c0,1-1.1,2.4-1.1,2.4c-4,5.1-9.6,9.1-18.8,13.2c-4.8,13.6-11.2,26.6-23.5,26.6
	c-6.1,0-11.3-4.2-11.3-9.5c0-7.3,9.3-13.1,23.4-17.6c0.6-1.7,1.1-3.4,1.6-5.2c4.8-15.9,7.7-26.1,9.8-33.4
	C416.5,456.8,417.6,456,418.9,456z M402.6,502.7c-8.2,3.9-14.3,10.3-14.3,14c0,0.9,0.6,1.6,1.5,1.6
	C395.2,518.3,399.3,511.3,402.6,502.7z M426.2,447.8c-2.9,0-5.4-2.1-5.4-5.7c0-5.1,4-10.1,8.4-10.1c2.9,0,5.1,2.2,5.1,5.5
	C434.3,442.8,430.5,447.8,426.2,447.8z"/>
<path d="M430.3,485.1c0-7.2,5.4-21.6,7.8-27.2c0.5-1.1,1.5-1.9,2.7-1.9c3,0,7.9,4.2,7.9,5.7c0,6-5.6,14.2-5.6,23.9
	c0,2.3,1.2,3.8,3.2,3.8c2,0,4.9-3.3,4.9-3.3c0.5-0.6,1.2-1.4,2.1-1.4c1.1,0,2.2,1.1,2.2,2.2c0,0.9-1.1,2.2-1.1,2.2s-5.5,7-11.4,7
	C435.4,496.1,430.3,491.6,430.3,485.1z M449.4,447.8c-2.9,0-5.4-2.1-5.4-5.7c0-5.1,4-10.1,8.4-10.1c2.9,0,5.1,2.2,5.1,5.5
	C457.5,442.8,453.7,447.8,449.4,447.8z"/>
<path d="M512.5,439.9c0,12.4,14.6,23.4,14.6,35.3c0,11.9-12.4,20.9-24.3,20.9c-17.1,0-26.8-10.3-26.8-18.7s14.1-15.5,20.5-15.5
	c1.2,0,1.7,0.7,1.7,1.7c0,0.9-0.7,1.4-2.1,2.4c-3.2,2.6-6.7,5.3-6.7,11.2c0,5.3,4.7,11.7,11.9,11.7c7.5,0,12.7-4.7,12.7-12.3
	c0-10-14.3-21.2-14.3-34.1c0-12.5,14.1-19.8,26.1-19.8c7.4,0,13.9,2.5,13.9,8.2c0,7.1-10.5,14.7-14.1,14.7c-0.9,0-1.7-0.8-1.7-1.5
	c0-0.7,0.3-1.1,1.3-2.4c1.8-2.3,4.2-5.8,4.2-9c0-2.6-2-4.1-4.9-4.1C517.5,428.6,512.5,434,512.5,439.9z"/>
<path d="M566.1,492.5c6.3-3.7,10.3-7.7,13.2-11.7c0,0,1-1.4,2.2-1.4c1.2,0,2.1,0.9,2.1,2c0,0.9-1.1,2.4-1.1,2.4
	c-3.5,4.7-8.7,9.6-17.9,14.4c-3.4,12-8.5,25.4-20.6,25.4c-6.1,0-11.3-4.2-11.3-9.5c0-6.8,8.8-11.1,20.9-15.9c1-3.7,1.7-7.2,2.2-9.6
	c-3.2,3.7-8.5,7.5-13.7,7.5c-4.6,0-10.4-4.3-10.4-9.7c0-7.2,5.4-22.9,7.8-28.5c0.5-1.1,1.5-1.9,2.7-1.9c3,0,7.9,4.2,7.9,5.7
	c0,5.2-6.5,16.3-6.5,25.1c0,1.6,0.8,3,2.3,3c3.2,0,7.1-4,8.8-7.1c3.8-6.9,6.4-18,8.4-24.8c0.3-1.2,1.5-1.9,2.8-1.9
	c2.9,0,7.8,4.2,7.8,5.7c0,2.8-3.5,16.4-6.4,26.3L566.1,492.5z M551.8,504.4c-7.1,4-12.1,9.1-12.1,11.9c0,1.3,0.6,2,1.8,2
	C545.9,518.3,549.4,511.7,551.8,504.4z"/>
<path d="M626.1,465.8c0-1.3-0.8-1.9-1.8-1.9c-2.2,0-6.7,4.3-10,12.5c-2.9,7-4.2,13-4.2,17.7c0,1.7-0.8,2-2.2,2
	c-5.3,0-9.4-2.3-9.4-5.5c0-8.4,5.9-19.7,5.9-24.6c0-1.4-0.5-2.1-1.8-2.1c-4.9,0-13.4,10.9-13.4,30.2c0,1.7-0.8,2-2.2,2
	c-5.3,0-9.4-2.3-9.4-5.5c0-11.7,5.8-26,8.1-31.7c0.5-1.2,1.5-1.9,2.7-1.9c1.5,0,3.9,0.6,7,5.4c0,0,7.2-6.4,13.9-6.4
	c4.4,0,6.8,3.2,8.2,7.4c0,0,7.7-7.4,15-7.4c3.6,0,7.5,3.8,7.5,7.3c0,5.4-6.2,14.2-6.2,22.3c0,2.3,1.2,3.8,3.2,3.8
	c5.4,0,10.7-8.6,10.7-8.6s0.8-1.4,2-1.4c1.1,0,2.1,0.9,2.1,2c0,0.9-0.9,2.4-0.9,2.4s-7.3,12.3-17.2,12.3c-7.6,0-12.7-4.5-12.7-11
	C621,476.1,626.1,470.4,626.1,465.8z"/>
<path d="M680,492.4c-0.9,0-2-0.1-3.1-0.2c-3.1,2.4-6.7,3.9-10.7,3.9c-6.4,0-10-5.1-10-5.1c-2.3,5.9-5.4,20.8-5.4,28.6
	c0,1.6-0.5,2.2-1.9,2.2c-3.8,0-9.1-1.7-9.1-7.1c0-7.1,8.9-41.7,14.1-55.8c0.5-1.2,1.5-1.9,2.8-1.9c1.4,0,3.8,0.6,6.9,5.4
	c0,0,7.1-6.4,13-6.4c7.1,0,12,6.7,12,12.5c0,5.6-2.6,13.2-7.1,19c0.3,0.1,0.6,0.1,0.9,0.1c6.8,0,11.8-6.8,11.8-6.8s0.8-1.4,2-1.4
	c1.1,0,2.1,0.9,2.1,2c0,0.9-0.9,2.4-0.9,2.4S691.7,492.4,680,492.4z M664.3,490.6c1.1,0,2.2-0.5,3.3-1.5c-0.3-0.4-0.5-0.9-0.5-1.4
	c0-2.1,3.2-4.8,4.9-4.9c2.6-5.3,4.3-11.9,4.3-15.1c0-3.6-1.2-4.9-3.4-4.9c-5.2,0-14.1,13-14.1,20.1
	C658.8,486.8,661,490.6,664.3,490.6z"/>
<path d="M716.3,485.1c0-7.2,5.2-14.5,5.2-18.2c0-2-0.8-2.9-2.2-2.9c-7,0-15,11.9-15,30.1c0,1.2-0.4,2-1.8,2c-4,0-9.8-1.6-9.8-5.4
	c0-16.7,13.9-65.2,32.5-65.2c4.5,0,9,5.2,9,8.8c0,8.3-12.7,23.4-13.4,24.2c0.4-0.3,4-2.5,8.3-2.5c3,0,6.4,3.5,6.4,6.9
	c0,6.2-6.4,14.9-6.4,22.7c0,2.3,1.2,3.8,3.2,3.8c5.4,0,10.7-8.6,10.7-8.6s0.8-1.4,2-1.4c1.1,0,2.1,0.9,2.1,2c0,0.9-0.9,2.4-0.9,2.4
	s-7.3,12.3-17.2,12.3C721.4,496.1,716.3,491.6,716.3,485.1z M727.4,432.2c-3.7,0-10.6,13.3-17.1,31.1c6.9-5.7,19-23,19-29.1
	C729.3,433,728.6,432.2,727.4,432.2z"/>
<path d="M773.3,492.4c-1.2,0-2.5-0.1-3.9-0.3c-3.2,2.5-7.1,4-11.4,4c-8.3,0-15.6-6.3-15.6-14.1c0-16.8,12.8-26,23.2-26
	c8.3,0,14.7,5.6,14.7,14.8c0,5.3-2.3,11.6-6.2,16.6c0.5,0.1,1,0.2,1.6,0.2c6.8,0,11.8-6.8,11.8-6.8s0.8-1.4,2-1.4
	c1.1,0,2.1,0.9,2.1,2c0,0.9-0.9,2.4-0.9,2.4S785,492.4,773.3,492.4z M759,491.3c1.1,0,2.1-0.4,3.1-1.2c-1.1-0.7-1.7-1.5-1.7-2.4
	c0-2.2,3.4-4.9,5-4.9c0.4,0,0.8,0.1,1.1,0.2c2-5,3.1-11.2,3.1-15.6c0-4.5-1.6-6.3-3.9-6.3c-4.5,0-11.5,9.9-11.5,23.4
	C754.2,488.5,756,491.3,759,491.3z"/>
<path d="M825.7,489.4c5.4,0,10.7-8.6,10.7-8.6s0.8-1.4,2-1.4c1.1,0,2.1,0.9,2.1,2c0,0.9-0.9,2.4-0.9,2.4s-7.3,12.3-17.2,12.3
	c-7.6,0-12.7-4.5-12.7-10.1c0-8.2,5.1-15.4,5.1-21.4c0-0.9-0.9-1.6-2-1.6c-6,0-15.4,11.9-15.4,31.1c0,1.7-0.8,2-2.2,2
	c-5.3,0-9.4-2.3-9.4-5.5c0-11.1,5.8-26,8.1-31.7c0.5-1.2,1.5-1.9,2.7-1.9c1.5,0,3.9,0.6,7,5.4c0,0,7.2-6.4,15.7-6.4
	c4.4,0,8.5,4.7,8.5,8.6c0,6-5.3,13.8-5.3,21C822.5,487.9,823.7,489.4,825.7,489.4z"/>
<path d="M859.5,488.6c-3.2,3.7-8.5,7.5-13.7,7.5c-4.6,0-10.4-4.3-10.4-9.7c0-7.2,5.4-22.9,7.8-28.5c0.5-1.1,1.5-1.9,2.7-1.9
	c3,0,7.9,4.2,7.9,5.7c0,5.2-6.5,16.3-6.5,25.1c0,1.6,0.8,3,2.3,3c3.2,0,7.1-4,8.8-7.1c3.8-6.9,6.4-18,8.4-24.8
	c0.3-1.2,1.5-1.9,2.8-1.9c2.9,0,7.8,4.2,7.8,5.7c0,2.8-3.7,14.1-6.4,26.3c-0.4,1.7-2.4,9.6-2.9,11.6c3.1-0.7,5.9-1.1,8.3-1.1
	c1.6,0,3.5,0.5,3.5,1.7c0,1.2-1.6,3.6-2.8,3.6s-2.4-0.7-5.3-0.7c-2.3,0-4.8,0.7-4.8,0.7c-3.3,12.1-7.9,23.8-20.2,23.8
	c-6.1,0-11.3-4.2-11.3-9.5c0-5.8,10-12.3,21-16.7C857.4,498,859.1,490.8,859.5,488.6z M855,507.2c-6.8,3.8-12.5,8.9-12.5,13.1
	c0,1.3,0.7,2,1.8,2C848.8,522.3,852.4,515,855,507.2z"/>
</svg>
