<?xml version="1.0" encoding="utf-8"?>
<!-- Generator: Adobe Illustrator 20.0.0, SVG Export Plug-In . SVG Version: 6.00 Build 0)  -->
<svg version="1.1" id="text" xmlns="http://www.w3.org/2000/svg" xmlns:xlink="http://www.w3.org/1999/xlink" x="0px" y="0px"
	 viewBox="0 0 1280 1024" style="enable-background:new 0 0 1280 1024;" xml:space="preserve">
<g>
	<path d="M426.2,447.8c4.3,0,8.1-5,8.1-10.3c0-3.3-2.2-5.5-5.1-5.5c-4.4,0-8.4,5-8.4,10.1C420.8,445.7,423.3,447.8,426.2,447.8z"/>
	<path d="M449.4,447.8c4.3,0,8.1-5,8.1-10.3c0-3.3-2.2-5.5-5.1-5.5c-4.4,0-8.4,5-8.4,10.1C444,445.7,446.5,447.8,449.4,447.8z"/>
	<path d="M453.3,484.7c-0.9,0-1.6,0.8-2.1,1.4c0,0-2.9,3.3-4.9,3.3c-2,0-3.2-1.5-3.2-3.8c0-9.7,5.6-17.9,5.6-23.9
		c0-1.5-4.9-5.7-7.9-5.7c-1.2,0-2.2,0.8-2.7,1.9c-2.1,4.9-6.6,16.8-7.6,24.4c-2.9,3.4-6.8,6.4-12.4,9.2c0.1-0.4,0.2-0.9,0.4-1.3
		c4.4-13.1,8.2-25.4,8.2-28.5c0-1.5-4.9-5.7-7.8-5.7c-1.3,0-2.4,0.8-2.8,1.9c-1.7,5.8-3.8,13.4-7.1,24.3c-1.9,2-5.8,5.4-10.6,5.4
		c-0.6,0-1.1-0.1-1.6-0.2c3.9-5,6.2-11.3,6.2-16.6c0-9.2-6.4-14.8-14.7-14.8c-10.3,0-23,9.1-23.2,25.7c-1.5,2.2-5.8,7.7-10.1,7.7
		c-2,0-3.2-1.5-3.2-3.8c0-8.1,6.2-16.9,6.2-22.3c0-3.5-3.9-7.3-7.5-7.3c-7.3,0-15,7.4-15,7.4c-1.4-4.2-3.8-7.4-8.2-7.4
		c-6.7,0-13.9,6.4-13.9,6.4c-3.1-4.8-5.5-5.4-7-5.4c-1.2,0-2.2,0.7-2.7,1.9c-1.8,4.4-5.6,13.7-7.2,23.1c-4.5,6.2-10.9,10-17.6,10
		c-8.4,0-13.1-4-13.1-12.4c0-13.5,13.2-20.5,13.2-20.5s3.3,1.9,8.1,1.9c3.9,0,6.4-2.6,6.4-4.6c0-2.2-1.8-3.5-5.9-3.5
		s-6.9,0.6-6.9,0.6s-2.2-3-2.4-7.5c17.5-1.2,28.7-7.6,28.7-14.4c0-5.3-5.8-8.9-12.9-8.9c-10.4,0-22.6,6.3-26.9,14.7
		c-3.3-2.1-5.3-4.9-5.3-8.1c0-2.4,1.8-4.1,1.8-4.8c0-0.4-0.3-0.9-0.9-0.9c-3,0-12.1,6.9-12.1,13.5c0,4.8,5,8,15.1,8.9
		c1.1,6.8,6.8,9.5,7.1,9.6c-1,0.4-21,7.2-21,24.3c0,12.9,12.5,18.1,23.6,18.1c8.6,0,15.3-3.6,20.1-8.1c0,0.2,0,0.5,0,0.7
		c0,3.2,4.1,5.5,9.4,5.5c1.4,0,2.2-0.3,2.2-2c0-19.3,8.5-30.2,13.4-30.2c1.3,0,1.8,0.7,1.8,2.1c0,4.9-5.9,16.2-5.9,24.6
		c0,3.2,4.1,5.5,9.4,5.5c1.4,0,2.2-0.3,2.2-2c0-4.7,1.3-10.7,4.2-17.7c3.3-8.2,7.8-12.5,10-12.5c1,0,1.8,0.6,1.8,1.9
		c0,4.6-5.1,10.3-5.1,19.3c0,6.5,5.1,11,12.7,11c6.4,0,11.7-5.1,14.6-8.7c2.4,5.1,8.1,8.7,14.4,8.7c4.3,0,8.2-1.5,11.4-4
		c1.4,0.2,2.7,0.3,3.9,0.3c4.5,0,8.1-1.3,10.8-2.8c-0.2,0.6-0.3,1.1-0.5,1.7c-0.5,1.8-1,3.5-1.6,5.2c-14.1,4.5-23.4,10.3-23.4,17.6
		c0,5.3,5.2,9.5,11.3,9.5c12.3,0,18.7-13,23.5-26.6c6.4-2.8,11-5.7,14.6-8.8c1.4,4.8,5.9,7.9,12.3,7.9c5.9,0,11.4-7,11.4-7
		s1.1-1.3,1.1-2.2C455.5,485.8,454.4,484.7,453.3,484.7z M293.8,427c2.8,0,5.1,1.4,5.1,3.5c0,5.8-8.6,9.8-20,9.8
		C281,432.5,287.8,427,293.8,427z M389.2,483c-0.3-0.1-0.7-0.2-1.1-0.2c-1.6,0-5,2.7-5,4.9c0,0.9,0.6,1.7,1.7,2.4
		c-1,0.8-2,1.2-3.1,1.2c-3,0-4.8-2.8-4.8-6.8c0-13.5,7-23.4,11.5-23.4c2.3,0,3.9,1.8,3.9,6.3C392.3,471.8,391.2,478,389.2,483z
		 M389.8,518.3c-0.9,0-1.5-0.7-1.5-1.6c0-3.7,6.1-10.1,14.3-14C399.3,511.3,395.2,518.3,389.8,518.3z"/>
</g>
<g>
	<path d="M524.5,428.6c2.9,0,4.9,1.5,4.9,4.1c0,3.2-2.4,6.7-4.2,9c-1,1.3-1.3,1.7-1.3,2.4c0,0.7,0.8,1.5,1.7,1.5
		c3.6,0,14.1-7.6,14.1-14.7c0-5.7-6.5-8.2-13.9-8.2c-12,0-26.1,7.3-26.1,19.8c0,12.9,14.3,24.1,14.3,34.1c0,7.6-5.2,12.3-12.7,12.3
		c-7.2,0-11.9-6.4-11.9-11.7c0-5.9,3.5-8.6,6.7-11.2c1.4-1,2.1-1.5,2.1-2.4c0-1-0.5-1.7-1.7-1.7c-6.4,0-20.5,7.1-20.5,15.5
		s9.7,18.7,26.8,18.7c11.9,0,24.3-9,24.3-20.9c0-11.9-14.6-22.9-14.6-35.3C512.5,434,517.5,428.6,524.5,428.6z"/>
	<path d="M876.4,498.5c-2.4,0-5.2,0.4-8.3,1.1c0.5-2,2.5-9.9,2.9-11.6c2.7-12.2,6.4-23.5,6.4-26.3c0-1.5-4.9-5.7-7.8-5.7
		c-1.3,0-2.5,0.7-2.8,1.9c-2,6.8-4.6,17.9-8.4,24.8c-1.7,3.1-5.6,7.1-8.8,7.1c-1.5,0-2.3-1.4-2.3-3c0-8.8,6.5-19.9,6.5-25.1
		c0-1.5-4.9-5.7-7.9-5.7c-1.2,0-2.2,0.8-2.7,1.9c-1.9,4.5-5.9,15.7-7.3,23.6c-1.4,2.1-5.8,7.9-10.2,7.9c-2,0-3.2-1.5-3.2-3.8
		c0-7.2,5.3-15,5.3-21c0-3.9-4.1-8.6-8.5-8.6c-8.5,0-15.7,6.4-15.7,6.4c-3.1-4.8-5.5-5.4-7-5.4c-1.2,0-2.2,0.7-2.7,1.9
		c-1.7,4.3-5.4,13.7-7.1,22.8c-1.6,1.8-5.8,5.9-11.1,5.9c-0.6,0-1.1-0.1-1.6-0.2c3.9-5,6.2-11.3,6.2-16.6c0-9.2-6.4-14.8-14.7-14.8
		c-10.3,0-23,9.1-23.2,25.7c-1.5,2.2-5.8,7.7-10.1,7.7c-2,0-3.2-1.5-3.2-3.8c0-7.8,6.4-16.5,6.4-22.7c0-3.4-3.4-6.9-6.4-6.9
		c-4.3,0-7.9,2.2-8.3,2.5c0.7-0.8,13.4-15.9,13.4-24.2c0-3.6-4.5-8.8-9-8.8c-15.9,0-28.3,35.3-31.6,56.1c-1.5,1.8-5.8,6-11.2,6
		c-0.3,0-0.6,0-0.9-0.1c4.5-5.8,7.1-13.4,7.1-19c0-5.8-4.9-12.5-12-12.5c-5.9,0-13,6.4-13,6.4c-3.1-4.8-5.5-5.4-6.9-5.4
		c-1.3,0-2.3,0.7-2.8,1.9c-2,5.5-4.7,14.2-7.1,23.2c-1.7,2.4-5.7,7.3-9.8,7.3c-2,0-3.2-1.5-3.2-3.8c0-8.1,6.2-16.9,6.2-22.3
		c0-3.5-3.9-7.3-7.5-7.3c-7.3,0-15,7.4-15,7.4c-1.4-4.2-3.8-7.4-8.2-7.4c-6.7,0-13.9,6.4-13.9,6.4c-3.1-4.8-5.5-5.4-7-5.4
		c-1.2,0-2.2,0.7-2.7,1.9c-1.7,4.3-5.5,13.6-7.2,23c-2.8,3.6-6.6,7.3-12.4,10.6l1.2-4.5c2.9-9.9,6.4-23.5,6.4-26.3
		c0-1.5-4.9-5.7-7.8-5.7c-1.3,0-2.5,0.7-2.8,1.9c-2,6.8-4.6,17.9-8.4,24.8c-1.7,3.1-5.6,7.1-8.8,7.1c-1.5,0-2.3-1.4-2.3-3
		c0-8.8,6.5-19.9,6.5-25.1c0-1.5-4.9-5.7-7.9-5.7c-1.2,0-2.2,0.8-2.7,1.9c-2.4,5.6-7.8,21.3-7.8,28.5c0,5.4,5.8,9.7,10.4,9.7
		c5.2,0,10.5-3.8,13.7-7.5c-0.5,2.4-1.2,5.9-2.2,9.6c-12.1,4.8-20.9,9.1-20.9,15.9c0,5.3,5.2,9.5,11.3,9.5
		c12.1,0,17.2-13.4,20.6-25.4c5.7-3,9.9-6,13-9c0,0.5,0,0.9,0,1.4c0,3.2,4.1,5.5,9.4,5.5c1.4,0,2.2-0.3,2.2-2
		c0-19.3,8.5-30.2,13.4-30.2c1.3,0,1.8,0.7,1.8,2.1c0,4.9-5.9,16.2-5.9,24.6c0,3.2,4.1,5.5,9.4,5.5c1.4,0,2.2-0.3,2.2-2
		c0-4.7,1.3-10.7,4.2-17.7c3.3-8.2,7.8-12.5,10-12.5c1,0,1.8,0.6,1.8,1.9c0,4.6-5.1,10.3-5.1,19.3c0,6.5,5.1,11,12.7,11
		c4.1,0,7.8-2.1,10.7-4.6c-2.6,10.5-4.6,19.9-4.6,23.2c0,5.4,5.3,7.1,9.1,7.1c1.4,0,1.9-0.6,1.9-2.2c0-7.8,3.1-22.7,5.4-28.6
		c0,0,3.6,5.1,10,5.1c4,0,7.6-1.5,10.7-3.9c1.1,0.1,2.2,0.2,3.1,0.2c5.7,0,9.9-2,12.8-4.1c-0.1,0.9-0.1,1.7-0.1,2.4
		c0,3.8,5.8,5.4,9.8,5.4c1.4,0,1.8-0.8,1.8-2c0-18.2,8-30.1,15-30.1c1.4,0,2.2,0.9,2.2,2.9c0,3.7-5.2,11-5.2,18.2
		c0,6.5,5.1,11,12.7,11c6.4,0,11.7-5.1,14.6-8.7c2.4,5.1,8.1,8.7,14.4,8.7c4.3,0,8.2-1.5,11.4-4c1.4,0.2,2.7,0.3,3.9,0.3
		c5.5,0,9.7-1.9,12.6-3.9c0,0.7-0.1,1.4-0.1,2.1c0,3.2,4.1,5.5,9.4,5.5c1.4,0,2.2-0.3,2.2-2c0-19.2,9.4-31.1,15.4-31.1
		c1.1,0,2,0.7,2,1.6c0,6-5.1,13.2-5.1,21.4c0,5.6,5.1,10.1,12.7,10.1c5.6,0,10.3-3.9,13.4-7.3c1.4,4.2,6.1,7.3,10,7.3
		c5.2,0,10.5-3.8,13.7-7.5c-0.4,2.2-2.1,9.4-3,12.8c-11,4.4-21,10.9-21,16.7c0,5.3,5.2,9.5,11.3,9.5c12.3,0,16.9-11.7,20.2-23.8
		c0,0,2.5-0.7,4.8-0.7c2.9,0,4.1,0.7,5.3,0.7s2.8-2.4,2.8-3.6C879.9,499,878,498.5,876.4,498.5z M541.5,518.3c-1.2,0-1.8-0.7-1.8-2
		c0-2.8,5-7.9,12.1-11.9C549.4,511.7,545.9,518.3,541.5,518.3z M672,482.8c-1.7,0.1-4.9,2.8-4.9,4.9c0,0.5,0.2,1,0.5,1.4
		c-1.1,1-2.2,1.5-3.3,1.5c-3.3,0-5.5-3.8-5.5-7.7c0-7.1,8.9-20.1,14.1-20.1c2.2,0,3.4,1.3,3.4,4.9
		C676.3,470.9,674.6,477.5,672,482.8z M710.3,463.3c6.5-17.8,13.4-31.1,17.1-31.1c1.2,0,1.9,0.8,1.9,2
		C729.3,440.3,717.2,457.6,710.3,463.3z M766.5,483c-0.3-0.1-0.7-0.2-1.1-0.2c-1.6,0-5,2.7-5,4.9c0,0.9,0.6,1.7,1.7,2.4
		c-1,0.8-2,1.2-3.1,1.2c-3,0-4.8-2.8-4.8-6.8c0-13.5,7-23.4,11.5-23.4c2.3,0,3.9,1.8,3.9,6.3C769.6,471.8,768.5,478,766.5,483z
		 M844.3,522.3c-1.1,0-1.8-0.7-1.8-2c0-4.2,5.7-9.3,12.5-13.1C852.4,515,848.8,522.3,844.3,522.3z"/>
</g>
</svg>
